<svg width="20" height="20" viewBox="0 0 20 20" fill="none" xmlns="http://www.w3.org/2000/svg">
<path fill-rule="evenodd" clip-rule="evenodd" d="M5.13116 13.4575C2.68743 10.319 2.90816 5.77838 5.79334 2.89319C8.91754 -0.231 13.9829 -0.231 17.107 2.89319C20.2312 6.01739 20.2312 11.0827 17.107 14.2069C14.2219 17.0921 9.6812 17.3128 6.54272 14.8691C6.52918 14.8844 6.51509 14.8994 6.50045 14.914L2.25781 19.1567C1.86728 19.5472 1.23412 19.5472 0.843594 19.1567C0.45307 18.7661 0.45307 18.133 0.843594 17.7424L5.08623 13.4998C5.10088 13.4852 5.11586 13.4711 5.13116 13.4575ZM7.20755 4.30741C4.86441 6.65055 4.86441 10.4495 7.20755 12.7927C9.5507 15.1358 13.3497 15.1358 15.6928 12.7927C18.036 10.4495 18.036 6.65055 15.6928 4.30741C13.3497 1.96426 9.5507 1.96426 7.20755 4.30741Z" fill="#A1A1A1"/>
</svg>
