<svg width="22" height="22" viewBox="0 0 22 22" fill="none" xmlns="http://www.w3.org/2000/svg">
<path d="M8.32738 15.1973C8.88796 15.1973 9.35813 15.0029 9.73788 14.6141C10.1176 14.2253 10.3075 13.7597 10.3075 13.2172C10.3075 12.6747 10.1176 12.2091 9.73788 11.8203C9.35813 11.4315 8.897 11.2371 8.3545 11.2371C7.79392 11.2371 7.31923 11.4315 6.93044 11.8203C6.54165 12.2091 6.34725 12.6747 6.34725 13.2172C6.34725 13.7597 6.54165 14.2253 6.93044 14.6141C7.31923 15.0029 7.78488 15.1973 8.32738 15.1973ZM13.3726 15.1973C13.9151 15.1973 14.3808 15.0029 14.7696 14.6141C15.1584 14.2253 15.3527 13.7597 15.3527 13.2172C15.3527 12.6747 15.1584 12.2091 14.7696 11.8203C14.3808 11.4315 13.9151 11.2371 13.3726 11.2371C12.8301 11.2371 12.3645 11.4315 11.9757 11.8203C11.5869 12.2091 11.3925 12.6747 11.3925 13.2172C11.3925 13.7597 11.5869 14.2253 11.9757 14.6141C12.3645 15.0029 12.8301 15.1973 13.3726 15.1973ZM10.85 10.1249C11.3925 10.1249 11.8581 9.93507 12.2469 9.55532C12.6357 9.17557 12.8301 8.70541 12.8301 8.14482C12.8301 7.60232 12.6357 7.13668 12.2469 6.74789C11.8581 6.3591 11.3925 6.1647 10.85 6.1647C10.3075 6.1647 9.84185 6.3591 9.45306 6.74789C9.06427 7.13668 8.86988 7.60232 8.86988 8.14482C8.86988 8.70541 9.06427 9.17557 9.45306 9.55532C9.84185 9.93507 10.3075 10.1249 10.85 10.1249ZM10.85 21.7073C9.36717 21.7073 7.96571 21.4225 6.64563 20.8529C5.32554 20.2833 4.17273 19.5057 3.18719 18.5201C2.20165 17.5346 1.42406 16.3818 0.854437 15.0617C0.284812 13.7416 0 12.3311 0 10.8302C0 9.34737 0.284812 7.94591 0.854437 6.62582C1.42406 5.30574 2.20165 4.15745 3.18719 3.18095C4.17273 2.20445 5.32554 1.43139 6.64563 0.861762C7.96571 0.292137 9.37621 0.00732422 10.8771 0.00732422C12.36 0.00732422 13.7614 0.292137 15.0815 0.861762C16.4016 1.43139 17.5499 2.20445 18.5264 3.18095C19.5029 4.15745 20.2759 5.30574 20.8456 6.62582C21.4152 7.94591 21.7 9.35641 21.7 10.8573C21.7 12.3402 21.4152 13.7416 20.8456 15.0617C20.2759 16.3818 19.5029 17.5346 18.5264 18.5201C17.5499 19.5057 16.4016 20.2833 15.0815 20.8529C13.7614 21.4225 12.3509 21.7073 10.85 21.7073ZM10.8771 20.0798C13.4269 20.0798 15.5969 19.1802 17.3871 17.3809C19.1774 15.5816 20.0725 13.398 20.0725 10.8302C20.0725 8.28045 19.1774 6.11045 17.3871 4.3202C15.5969 2.52995 13.4178 1.63482 10.85 1.63482C8.30025 1.63482 6.12573 2.52995 4.32644 4.3202C2.52715 6.11045 1.6275 8.28949 1.6275 10.8573C1.6275 13.4071 2.52715 15.5816 4.32644 17.3809C6.12573 19.1802 8.30929 20.0798 10.8771 20.0798Z" fill="white"/>
</svg>
