<svg width="190" height="21" viewBox="0 0 190 21" fill="none" xmlns="http://www.w3.org/2000/svg">
<mask id="mask0_35_12808" style="mask-type:luminance" maskUnits="userSpaceOnUse" x="0" y="0" width="30" height="21">
<path d="M30 0.0078125H0V20.0078H30V0.0078125Z" fill="white"/>
</mask>
<g mask="url(#mask0_35_12808)">
<path d="M21.3333 6.84131L29.25 19.508H13.4167L21.3333 6.84131Z" fill="#CBCAFE"/>
<path d="M17.3297 8.0354L12.625 0.507812L0.75 19.5078H10.1595L17.3297 8.0354Z" fill="#5765F7"/>
</g>
<path d="M40.977 18.0077V5.55474H36.21V2.88775H48.6V5.55474H43.833V18.0077H40.977ZM53.4374 18.0077V2.88775H59.8214C59.9684 2.88775 60.1644 2.89475 60.4094 2.90875C60.6614 2.91575 60.8854 2.93675 61.0814 2.97175C61.9844 3.11174 62.7229 3.40924 63.2969 3.86424C63.8779 4.31924 64.3049 4.89324 64.5779 5.58624C64.8509 6.27224 64.9874 7.03874 64.9874 7.88574C64.9874 9.15274 64.6724 10.2377 64.0424 11.1407C63.4124 12.0367 62.4254 12.5897 61.0814 12.7997L59.8214 12.8837H56.2934V18.0077H53.4374ZM61.9634 18.0077L58.9814 11.8547L61.9214 11.2877L65.1974 18.0077H61.9634ZM56.2934 10.2167H59.6954C59.8424 10.2167 60.0034 10.2097 60.1784 10.1957C60.3534 10.1817 60.5144 10.1537 60.6614 10.1117C61.0464 10.0067 61.3439 9.83174 61.5539 9.58674C61.7639 9.33474 61.9074 9.05824 61.9844 8.75724C62.0684 8.44924 62.1104 8.15874 62.1104 7.88574C62.1104 7.61274 62.0684 7.32574 61.9844 7.02474C61.9074 6.71674 61.7639 6.44024 61.5539 6.19524C61.3439 5.94324 61.0464 5.76474 60.6614 5.65974C60.5144 5.61774 60.3534 5.58974 60.1784 5.57574C60.0034 5.56174 59.8424 5.55474 59.6954 5.55474H56.2934V10.2167ZM77.1447 18.3227C75.6327 18.3227 74.3272 17.9937 73.2282 17.3357C72.1362 16.6777 71.2927 15.7572 70.6977 14.5742C70.1097 13.3912 69.8157 12.0157 69.8157 10.4477C69.8157 8.87974 70.1097 7.50424 70.6977 6.32124C71.2927 5.13824 72.1362 4.21774 73.2282 3.55974C74.3272 2.90175 75.6327 2.57275 77.1447 2.57275C78.6567 2.57275 79.9587 2.90175 81.0507 3.55974C82.1497 4.21774 82.9932 5.13824 83.5812 6.32124C84.1762 7.50424 84.4737 8.87974 84.4737 10.4477C84.4737 12.0157 84.1762 13.3912 83.5812 14.5742C82.9932 15.7572 82.1497 16.6777 81.0507 17.3357C79.9587 17.9937 78.6567 18.3227 77.1447 18.3227ZM77.1447 15.6347C78.1037 15.6487 78.9017 15.4422 79.5387 15.0152C80.1757 14.5882 80.6517 13.9827 80.9667 13.1987C81.2887 12.4147 81.4497 11.4977 81.4497 10.4477C81.4497 9.39774 81.2887 8.48774 80.9667 7.71774C80.6517 6.94774 80.1757 6.34924 79.5387 5.92224C78.9017 5.49524 78.1037 5.27474 77.1447 5.26074C76.1857 5.24674 75.3877 5.45324 74.7507 5.88024C74.1137 6.30724 73.6342 6.91274 73.3122 7.69674C72.9972 8.48074 72.8397 9.39774 72.8397 10.4477C72.8397 11.4977 72.9972 12.4077 73.3122 13.1777C73.6342 13.9477 74.1137 14.5462 74.7507 14.9732C75.3877 15.4002 76.1857 15.6207 77.1447 15.6347ZM89.7198 18.0077V2.88775H92.6178L99.1908 12.9677V2.88775H102.089V18.0077H99.1908L92.6178 7.92774V18.0077H89.7198ZM113.881 18.3227C112.761 18.3227 111.749 18.1267 110.846 17.7347C109.95 17.3357 109.212 16.7687 108.631 16.0337C108.057 15.2917 107.693 14.4097 107.539 13.3877L110.521 12.9467C110.731 13.8147 111.165 14.4832 111.823 14.9522C112.481 15.4212 113.23 15.6557 114.07 15.6557C114.539 15.6557 114.994 15.5822 115.435 15.4352C115.876 15.2882 116.236 15.0712 116.516 14.7842C116.803 14.4972 116.947 14.1437 116.947 13.7237C116.947 13.5697 116.922 13.4227 116.873 13.2827C116.831 13.1357 116.758 12.9992 116.653 12.8732C116.548 12.7472 116.397 12.6282 116.201 12.5162C116.012 12.4042 115.771 12.3027 115.477 12.2117L111.55 11.0567C111.256 10.9727 110.913 10.8537 110.521 10.6997C110.136 10.5457 109.761 10.3252 109.397 10.0382C109.033 9.75124 108.729 9.37324 108.484 8.90424C108.246 8.42824 108.127 7.82974 108.127 7.10874C108.127 6.09374 108.382 5.25024 108.893 4.57824C109.404 3.90624 110.087 3.40574 110.941 3.07674C111.795 2.74775 112.74 2.58675 113.776 2.59375C114.819 2.60775 115.75 2.78625 116.569 3.12924C117.388 3.47224 118.074 3.97274 118.627 4.63074C119.18 5.28174 119.579 6.07974 119.824 7.02474L116.737 7.54974C116.625 7.05974 116.418 6.64674 116.117 6.31074C115.816 5.97474 115.456 5.71924 115.036 5.54424C114.623 5.36924 114.189 5.27474 113.734 5.26074C113.286 5.24674 112.862 5.30974 112.463 5.44974C112.071 5.58274 111.749 5.77874 111.497 6.03774C111.252 6.29674 111.13 6.60474 111.13 6.96174C111.13 7.29074 111.231 7.56024 111.434 7.77024C111.637 7.97324 111.893 8.13774 112.201 8.26374C112.509 8.38974 112.824 8.49474 113.146 8.57874L115.771 9.29274C116.163 9.39774 116.597 9.53774 117.073 9.71274C117.549 9.88074 118.004 10.1187 118.438 10.4267C118.879 10.7277 119.239 11.1267 119.519 11.6237C119.806 12.1207 119.95 12.7507 119.95 13.5137C119.95 14.3257 119.778 15.0362 119.435 15.6452C119.099 16.2472 118.644 16.7477 118.07 17.1467C117.496 17.5387 116.845 17.8327 116.117 18.0287C115.396 18.2247 114.651 18.3227 113.881 18.3227ZM125.408 18.0077V2.88775H131.792C131.939 2.88775 132.135 2.89475 132.38 2.90875C132.632 2.91575 132.856 2.93675 133.052 2.97175C133.955 3.11174 134.693 3.40924 135.267 3.86424C135.848 4.31924 136.275 4.89324 136.548 5.58624C136.821 6.27224 136.958 7.03874 136.958 7.88574C136.958 8.73274 136.818 9.50274 136.538 10.1957C136.265 10.8817 135.838 11.4522 135.257 11.9072C134.683 12.3622 133.948 12.6597 133.052 12.7997C132.856 12.8277 132.632 12.8487 132.38 12.8627C132.128 12.8767 131.932 12.8837 131.792 12.8837H128.264V18.0077H125.408ZM128.264 10.2167H131.666C131.813 10.2167 131.974 10.2097 132.149 10.1957C132.324 10.1817 132.485 10.1537 132.632 10.1117C133.017 10.0067 133.314 9.83174 133.524 9.58674C133.734 9.33474 133.878 9.05824 133.955 8.75724C134.039 8.44924 134.081 8.15874 134.081 7.88574C134.081 7.61274 134.039 7.32574 133.955 7.02474C133.878 6.71674 133.734 6.44024 133.524 6.19524C133.314 5.94324 133.017 5.76474 132.632 5.65974C132.485 5.61774 132.324 5.58974 132.149 5.57574C131.974 5.56174 131.813 5.55474 131.666 5.55474H128.264V10.2167ZM148.705 18.3227C147.193 18.3227 145.887 17.9937 144.788 17.3357C143.696 16.6777 142.853 15.7572 142.258 14.5742C141.67 13.3912 141.376 12.0157 141.376 10.4477C141.376 8.87974 141.67 7.50424 142.258 6.32124C142.853 5.13824 143.696 4.21774 144.788 3.55974C145.887 2.90175 147.193 2.57275 148.705 2.57275C150.217 2.57275 151.519 2.90175 152.611 3.55974C153.71 4.21774 154.553 5.13824 155.141 6.32124C155.736 7.50424 156.034 8.87974 156.034 10.4477C156.034 12.0157 155.736 13.3912 155.141 14.5742C154.553 15.7572 153.71 16.6777 152.611 17.3357C151.519 17.9937 150.217 18.3227 148.705 18.3227ZM148.705 15.6347C149.664 15.6487 150.462 15.4422 151.099 15.0152C151.736 14.5882 152.212 13.9827 152.527 13.1987C152.849 12.4147 153.01 11.4977 153.01 10.4477C153.01 9.39774 152.849 8.48774 152.527 7.71774C152.212 6.94774 151.736 6.34924 151.099 5.92224C150.462 5.49524 149.664 5.27474 148.705 5.26074C147.746 5.24674 146.948 5.45324 146.311 5.88024C145.674 6.30724 145.194 6.91274 144.872 7.69674C144.557 8.48074 144.4 9.39774 144.4 10.4477C144.4 11.4977 144.557 12.4077 144.872 13.1777C145.194 13.9477 145.674 14.5462 146.311 14.9732C146.948 15.4002 147.746 15.6207 148.705 15.6347ZM161.28 18.0077V2.88775H167.664C167.811 2.88775 168.007 2.89475 168.252 2.90875C168.504 2.91575 168.728 2.93675 168.924 2.97175C169.827 3.11174 170.565 3.40924 171.139 3.86424C171.72 4.31924 172.147 4.89324 172.42 5.58624C172.693 6.27224 172.83 7.03874 172.83 7.88574C172.83 9.15274 172.515 10.2377 171.885 11.1407C171.255 12.0367 170.268 12.5897 168.924 12.7997L167.664 12.8837H164.136V18.0077H161.28ZM169.806 18.0077L166.824 11.8547L169.764 11.2877L173.04 18.0077H169.806ZM164.136 10.2167H167.538C167.685 10.2167 167.846 10.2097 168.021 10.1957C168.196 10.1817 168.357 10.1537 168.504 10.1117C168.889 10.0067 169.186 9.83174 169.396 9.58674C169.606 9.33474 169.75 9.05824 169.827 8.75724C169.911 8.44924 169.953 8.15874 169.953 7.88574C169.953 7.61274 169.911 7.32574 169.827 7.02474C169.75 6.71674 169.606 6.44024 169.396 6.19524C169.186 5.94324 168.889 5.76474 168.504 5.65974C168.357 5.61774 168.196 5.58974 168.021 5.57574C167.846 5.56174 167.685 5.55474 167.538 5.55474H164.136V10.2167ZM182.005 18.0077V5.55474H177.238V2.88775H189.628V5.55474H184.861V18.0077H182.005Z" fill="#404040"/>
</svg>
