<svg width="51" height="52" viewBox="0 0 51 52" fill="none" xmlns="http://www.w3.org/2000/svg">
<circle cx="25.5" cy="25.5083" r="25.5" fill="#5932EA" fill-opacity="0.11"/>
<path opacity="0.35" d="M32.3545 36.1857H17.7831C15.771 36.1857 14.1402 34.555 14.1402 32.5429V17.9715C14.1402 15.9594 15.771 14.3286 17.7831 14.3286H32.3545C34.3666 14.3286 35.9974 15.9594 35.9974 17.9715V32.5429C35.9974 34.555 34.3666 36.1857 32.3545 36.1857Z" fill="#5932EA" fill-opacity="0.38"/>
<path d="M35.9974 28.8999V32.5428C35.9974 34.5548 34.3666 36.1856 32.3545 36.1856H17.7831C15.771 36.1856 14.1402 34.5548 14.1402 32.5428V28.8999H19.4127C20.3853 28.8999 21.3337 29.4233 21.7113 30.3194C22.2638 31.6272 23.557 32.5428 25.0688 32.5428C26.5806 32.5428 27.8738 31.6272 28.4263 30.3194C28.8039 29.4233 29.7511 28.8999 30.7249 28.8999H35.9974Z" fill="#5932EA"/>
</svg>
