<svg width="22" height="21" viewBox="0 0 22 21" fill="none" xmlns="http://www.w3.org/2000/svg">
<path d="M10.9999 6.30576V19.5783M6.5999 10.6486L10.9999 12.9399M15.3999 12.798L10.9999 15.6277M10.9999 19.7836C13.4797 19.7836 15.8579 18.8212 17.6113 17.108C19.3648 15.3949 20.3499 13.0714 20.3499 10.6486C20.3499 8.22589 19.3648 5.90237 17.6113 4.18924C15.8579 2.4761 13.4797 1.51367 10.9999 1.51367C8.52013 1.51367 6.14192 2.4761 4.38845 4.18924C2.63499 5.90237 1.6499 8.22589 1.6499 10.6486C1.6499 13.0714 2.63499 15.3949 4.38845 17.108C6.14192 18.8212 8.52013 19.7836 10.9999 19.7836Z" stroke="#878787" stroke-width="2" stroke-linecap="round"/>
</svg>
