<svg width="22" height="21" viewBox="0 0 22 21" fill="none" xmlns="http://www.w3.org/2000/svg">
<path d="M10.9999 6.30649V19.579M6.5999 10.6494L10.9999 12.9406M15.3999 12.7988L10.9999 15.6284M10.9999 19.7843C13.4797 19.7843 15.8579 18.8219 17.6113 17.1087C19.3648 15.3956 20.3499 13.0721 20.3499 10.6494C20.3499 8.22662 19.3648 5.90311 17.6113 4.18997C15.8579 2.47683 13.4797 1.5144 10.9999 1.5144C8.52013 1.5144 6.14192 2.47683 4.38845 4.18997C2.63499 5.90311 1.6499 8.22662 1.6499 10.6494C1.6499 13.0721 2.63499 15.3956 4.38845 17.1087C6.14192 18.8219 8.52013 19.7843 10.9999 19.7843Z" stroke="white" stroke-width="2" stroke-linecap="round"/>
</svg>
